<svg width="30" height="30" viewBox="0 0 30 30" fill="none" xmlns="http://www.w3.org/2000/svg">
<path d="M24.505 14.7084V21.8158C24.505 23.6643 24.505 24.5885 23.9307 25.1628C23.3565 25.7371 22.4322 25.7371 20.5837 25.7371H7.96196C7.84818 25.7371 7.7913 25.7371 7.74319 25.7355C6.19444 25.6848 4.95071 24.4411 4.90001 22.8923C4.89844 22.8442 4.89844 22.7873 4.89844 22.6735V22.6735C4.89844 22.5598 4.89844 22.5029 4.90001 22.4548C4.95071 20.906 6.19444 19.6623 7.74319 19.6116C7.7913 19.61 7.84818 19.61 7.96196 19.61H20.5837C22.4322 19.61 23.3565 19.61 23.9307 19.0358C24.505 18.4615 24.505 17.5372 24.505 15.6887V7.601C24.505 5.75247 24.505 4.82821 23.9307 4.25395C23.3565 3.67969 22.4322 3.67969 20.5837 3.67969H8.81975C6.97122 3.67969 6.04696 3.67969 5.4727 4.25395C4.89844 4.82821 4.89844 5.75248 4.89844 7.601V22.6735" stroke="#33363F" stroke-width="1.96066"/>
<path d="M11.0234 12.2555L12.7811 14.0131C13.1639 14.396 13.7846 14.396 14.1675 14.0131L18.3759 9.80469" stroke="#33363F" stroke-width="1.96066" stroke-linecap="round"/>
</svg>
