<svg width="30" height="30" viewBox="0 0 30 30" fill="none" xmlns="http://www.w3.org/2000/svg">
<path fill-rule="evenodd" clip-rule="evenodd" d="M14.9498 2.46094V9.07959L14.9498 9.13293V9.13297V9.13298V9.13299C14.9497 9.5487 14.9496 9.95269 14.9944 10.2859C15.045 10.6616 15.168 11.0902 15.5241 11.4463C15.8801 11.8024 16.3088 11.9254 16.6845 11.9759C17.0177 12.0207 17.4217 12.0207 17.8374 12.0206H17.8374H17.8375H17.8375L17.8908 12.0206H24.505V19.6167C24.505 23.0827 24.505 24.8156 23.4283 25.8924C22.3515 26.9691 20.6185 26.9691 17.1525 26.9691H12.2509C8.78491 26.9691 7.05192 26.9691 5.97518 25.8924C4.89844 24.8156 4.89844 23.0827 4.89844 19.6167V9.8134C4.89844 6.34741 4.89844 4.61442 5.97518 3.53768C7.05192 2.46094 8.78491 2.46094 12.2509 2.46094H14.9498ZM16.9105 2.4626V9.07959C16.9105 9.56944 16.9126 9.8382 16.9376 10.0247L16.9386 10.0318L16.9457 10.0328C17.1322 10.0578 17.401 10.0599 17.8908 10.0599H24.5034C24.4971 9.41267 24.4666 9.02303 24.3184 8.66526C24.1319 8.21487 23.7777 7.86069 23.0693 7.15233L19.8136 3.89659C19.1052 3.18823 18.7511 2.83405 18.3007 2.6475C17.9437 2.49964 17.5551 2.46897 16.9105 2.4626ZM10.0383 15.9311C10.0383 15.3897 10.4772 14.9508 11.0186 14.9508H18.3711C18.9125 14.9508 19.3514 15.3897 19.3514 15.9311C19.3514 16.4726 18.9125 16.9115 18.3711 16.9115L11.0186 16.9115C10.4772 16.9115 10.0383 16.4726 10.0383 15.9311ZM11.0186 19.8547C10.4772 19.8547 10.0383 20.2936 10.0383 20.835C10.0383 21.3764 10.4772 21.8153 11.0186 21.8153H15.9203C16.4617 21.8153 16.9006 21.3764 16.9006 20.835C16.9006 20.2936 16.4617 19.8547 15.9203 19.8547H11.0186Z" fill="#222222"/>
</svg>
