<svg width="30" height="30" viewBox="0 0 30 30" fill="none" xmlns="http://www.w3.org/2000/svg">
<path fill-rule="evenodd" clip-rule="evenodd" d="M6.59308 12.6563C6.25 13.4022 6.25 14.2508 6.25 15.948V21.2485C6.25 23.6055 6.25 24.784 6.98223 25.5162C7.67456 26.2086 8.76584 26.2463 10.875 26.2483V19.9985C10.875 18.7559 11.8824 17.7485 13.125 17.7485H16.875C18.1176 17.7485 19.125 18.7559 19.125 19.9985V26.2483C21.2342 26.2463 22.3254 26.2086 23.0178 25.5162C23.75 24.784 23.75 23.6055 23.75 21.2485V15.948C23.75 14.2508 23.75 13.4022 23.4069 12.6563C23.0638 11.9103 22.4195 11.3581 21.1309 10.2535L19.8809 9.18212C17.5518 7.18571 16.3872 6.1875 15 6.1875C13.6128 6.1875 12.4482 7.18571 10.1191 9.18212L8.86906 10.2535C7.58046 11.3581 6.93615 11.9103 6.59308 12.6563ZM17.125 26.2485V19.9985C17.125 19.8605 17.0131 19.7485 16.875 19.7485H13.125C12.9869 19.7485 12.875 19.8605 12.875 19.9985V26.2485H17.125Z" fill="#222222"/>
</svg>
