<svg width="30" height="30" viewBox="0 0 30 30" fill="none" xmlns="http://www.w3.org/2000/svg">
<path d="M19.608 9.80674V8.58133C19.608 8.58133 19.608 8.58133 19.608 8.58133C19.608 5.87423 17.4134 3.67969 14.7063 3.67969C14.7063 3.67969 14.7063 3.67969 14.7063 3.67969V3.67969C14.7063 3.67969 14.7063 3.67969 14.7063 3.67969C11.9992 3.67969 9.80469 5.87423 9.80469 8.58133C9.80469 8.58133 9.80469 8.58133 9.80469 8.58133V9.80674" stroke="#222222" stroke-width="1.96066" stroke-linecap="round"/>
<path fill-rule="evenodd" clip-rule="evenodd" d="M4.54108 9.44733C3.67969 10.3087 3.67969 11.6951 3.67969 14.4679V19.1245C3.67969 22.8215 3.67969 24.67 4.82821 25.8186C5.97674 26.9671 7.82526 26.9671 11.5223 26.9671H17.8944C21.5915 26.9671 23.44 26.9671 24.5885 25.8186C25.7371 24.67 25.7371 22.8215 25.7371 19.1245V14.4679C25.7371 11.6951 25.7371 10.3087 24.8757 9.44733C24.0143 8.58594 22.6279 8.58594 19.8551 8.58594H9.56165C6.78887 8.58594 5.40248 8.58594 4.54108 9.44733ZM14.7102 18.8702C15.6577 18.8702 16.4258 18.1021 16.4258 17.1546C16.4258 16.2072 15.6577 15.4391 14.7102 15.4391C13.7627 15.4391 12.9946 16.2072 12.9946 17.1546C12.9946 18.1021 13.7627 18.8702 14.7102 18.8702ZM18.3864 17.1546C18.3864 18.8441 17.2467 20.2675 15.6942 20.6977V23.2825H13.7336V20.6997C12.1773 20.2719 11.034 18.8468 11.034 17.1546C11.034 15.1243 12.6799 13.4784 14.7102 13.4784C16.7405 13.4784 18.3864 15.1243 18.3864 17.1546Z" fill="#222222"/>
</svg>
